<?xml version="1.0" encoding="UTF-8" standalone="no"?>
<svg
   width="711.89594"
   height="652.56311"
   viewBox="0 0 533.92195 489.42233"
   version="1.2"
   id="svg3217"
   sodipodi:docname="favicon.svg"
   inkscape:version="1.1 (1:1.1+202105261517+ce6663b3b7)"
   inkscape:export-filename="/home/dietmarw/.workspace/OpenSimHub/opensimhub.github.io/img/ComputerSimulation.png"
   inkscape:export-xdpi="90"
   inkscape:export-ydpi="90"
   xmlns:inkscape="http://www.inkscape.org/namespaces/inkscape"
   xmlns:sodipodi="http://sodipodi.sourceforge.net/DTD/sodipodi-0.dtd"
   xmlns="http://www.w3.org/2000/svg"
   xmlns:svg="http://www.w3.org/2000/svg">
  <defs
     id="defs3221" />
  <sodipodi:namedview
     id="namedview3219"
     pagecolor="#ffffff"
     bordercolor="#666666"
     borderopacity="1.0"
     inkscape:pageshadow="2"
     inkscape:pageopacity="0.0"
     inkscape:pagecheckerboard="true"
     inkscape:document-units="pt"
     showgrid="false"
     fit-margin-left="100"
     fit-margin-top="70"
     fit-margin-right="100"
     fit-margin-bottom="130"
     inkscape:zoom="1.0103716"
     inkscape:cx="310.77676"
     inkscape:cy="307.31269"
     inkscape:window-width="1920"
     inkscape:window-height="1167"
     inkscape:window-x="1920"
     inkscape:window-y="0"
     inkscape:window-maximized="1"
     inkscape:current-layer="svg3217"
     scale-x="1"
     lock-margins="false"
     units="px" />
  <g
     id="surface358"
     transform="matrix(0.07835135,0,0,0.07835135,-497.19355,-46.379427)"
     inkscape:export-filename="/home/dietmarw/.workspace/OpenSimHub/opensimhub.github.io/img/ComputerSimulation.png"
     inkscape:export-xdpi="90"
     inkscape:export-ydpi="90">
    <path
       style="fill:#191919;fill-opacity:1;fill-rule:nonzero;stroke:none"
       d="m 11708.13,2134.0979 h -482.879 v 224.7891 h 370.469 V 4478.2893 H 7910.0947 V 2358.887 h 370.4727 v -224.7891 h -482.8672 c -62.0821,0 -112.4141,50.3125 -112.4141,112.4141 V 4769.5003 H 11820.544 V 2246.512 c 0,-62.1016 -50.316,-112.4141 -112.414,-112.4141"
       id="path3202" />
    <path
       style="fill:#191919;fill-opacity:1;fill-rule:nonzero;stroke:none"
       d="m 9654.1846,1953.3948 26.6054,-15.3281 4.6563,-30.3828 c 2.9687,-19.3946 6.0898,-38.5508 9.2617,-56.9375 17.2578,-100.1446 36.8047,-182.8086 58.2148,-246.2813 21.3789,63.4727 40.9493,146.1367 58.1914,246.2813 3.1993,18.3867 6.293,37.5429 9.2813,56.9375 l 4.6562,30.3828 26.5938,15.3281 145.6484,84.1211 111.5821,64.414 -16.094,-127.8515 c -9.558,-75.9531 -20.683,-147.6641 -33.023,-213.1211 -25.098,-133.0977 -55.164,-239.5352 -89.4065,-316.3242 -21.3086,-47.8282 -44.4219,-84.918 -70.6328,-113.3867 -22.9766,-24.9258 -48.8398,-43.4532 -76.8906,-55.0977 -22.5586,-9.3867 -46.0938,-14.1484 -69.9063,-14.1484 -23.8086,0 -47.3476,4.7617 -69.9375,14.1484 -28.0273,11.6445 -53.8984,30.1719 -76.8711,55.0977 -26.207,28.4687 -49.3164,65.5585 -70.6484,113.3867 -34.2266,76.789 -64.3086,183.2265 -89.3984,316.3242 -12.3477,65.457 -23.461,137.168 -33.0196,213.1211 l -16.0976,127.8515 111.5976,-64.414 145.6368,-84.1211"
       id="path3204" />
    <path
       style="fill:#191919;fill-opacity:1;fill-rule:nonzero;stroke:none"
       d="m 8528.1963,2302.1682 c 49.3789,68.0196 126.5,147.3047 229.2188,235.5704 54.3007,46.6953 115.4882,95.6445 181.8515,145.582 l 99.5625,74.9023 -99.5625,74.8711 c -66.3711,49.9375 -127.5508,98.9141 -181.8515,145.5781 -102.7188,88.2657 -179.8399,167.5547 -229.2188,235.5743 -30.7812,42.4062 -51.3398,80.9531 -62.8711,117.8632 -10.1094,32.375 -13.2422,64.0391 -9.3008,94.1329 3.1602,24.2578 10.8125,47.0312 22.711,67.6484 11.9101,20.6172 27.8008,38.6094 47.2109,53.4844 24.1094,18.457 53.1016,31.5742 86.168,39.0117 23.1211,5.1836 47.9219,7.7148 75.8125,7.7148 17.8476,0 37.2617,-1.0781 57.7109,-3.2422 83.6172,-8.7304 190.8203,-35.8906 318.6406,-80.7031 72.2305,-25.3398 150.5586,-56.1094 232.8086,-91.4765 l 99.1914,-42.6524 12.6524,107.2149 c 10.4922,88.9179 22.9922,172.1523 37.1875,247.3632 25.0937,133.1094 55.1836,239.5274 89.4101,316.3086 21.3243,47.8516 44.4414,84.9375 70.6446,113.3907 22.9609,24.9179 48.8242,43.4687 76.8789,55.1171 22.5586,9.3829 46.1094,14.1329 69.9023,14.1329 23.8281,0 47.3438,-4.75 69.9336,-14.1329 28.0235,-11.6484 53.918,-30.1992 76.8789,-55.1171 26.2031,-28.4532 49.3203,-65.5391 70.6446,-113.3907 34.2268,-76.789 64.3168,-183.1992 89.4098,-316.3086 14.196,-75.2109 26.696,-158.4453 37.188,-247.3632 l 12.656,-107.2149 99.191,42.6524 c 82.247,35.3671 160.579,66.1367 232.793,91.4765 127.836,44.8125 235.02,71.9727 318.625,80.7031 20.465,2.1641 39.875,3.2422 57.747,3.2422 27.867,0 52.679,-2.5312 75.796,-7.7148 33.086,-7.4375 62.067,-20.5547 86.168,-39.0117 19.414,-14.875 35.309,-32.8672 47.188,-53.4844 11.914,-20.6172 19.57,-43.3906 22.746,-67.6484 3.922,-30.0938 0.805,-61.7579 -9.32,-94.1329 -11.512,-36.9101 -32.067,-75.457 -62.868,-117.8632 -49.378,-68.0196 -126.503,-147.3086 -229.214,-235.5743 -54.286,-46.664 -115.489,-95.6406 -181.84,-145.5781 l -99.563,-74.8711 99.563,-74.9023 c 66.351,-49.9375 127.554,-98.8867 181.84,-145.582 102.711,-88.2657 179.836,-167.5508 229.214,-235.5704 30.801,-42.4062 51.356,-80.9531 62.868,-117.8671 10.125,-32.3711 13.242,-64.0391 9.32,-94.129 -3.176,-24.2578 -10.832,-47.0039 -22.746,-67.6523 -11.879,-20.6133 -27.774,-38.6055 -47.188,-53.4844 -24.101,-18.4531 -53.082,-31.5703 -86.168,-39.0078 -23.117,-5.1875 -47.929,-7.7148 -75.796,-7.7148 -17.872,0 -37.282,1.0781 -57.715,3.2383 -83.637,8.7343 -190.821,35.8945 -318.657,80.707 -62.863,22.0664 -130.515,48.2695 -201.066,77.957 l -118.762,49.9961 111.602,64.4414 145.64,84.0703 26.571,15.3711 28.64,-11.1406 c 18.27,-7.1328 36.45,-14.0117 53.95,-20.4648 95.332,-35.1211 176.718,-59.5 242.394,-72.7422 -44.258,50.2773 -106.105,108.5429 -184.187,173.5703 -18.395,15.3086 -37.899,31.1719 -58.024,47.1289 l -24.195,19.2265 v 649.1016 l 24.195,19.1953 c 20.125,15.9844 39.629,31.8203 58.024,47.125 78.082,65.0274 139.929,123.2969 184.187,173.5703 -65.676,-13.207 -147.062,-37.6211 -242.394,-72.7422 -27.469,-10.121 -56.293,-21.2031 -85.614,-32.9609 l -28.886,-11.5742 -26.914,15.5547 -144.684,83.5156 -110.516,63.793 -90.152,52.0664 -144.6836,83.5117 -26.9414,15.5547 -4.414,30.8008 c -4.4727,31.2656 -9.2578,61.789 -14.2266,90.6445 -17.2852,100.1172 -36.8203,182.7969 -58.2383,246.2773 -21.3867,-63.4804 -40.9219,-146.1601 -58.207,-246.2773 -4.9688,-28.8867 -9.75,-59.3789 -14.2266,-90.6445 l -4.4453,-30.8008 -26.9414,-15.5547 -144.6523,-83.5117 -90.1485,-52.0664 -110.5273,-63.793 -144.6719,-83.5156 -26.9375,-15.5547 -28.8711,11.5742 c -29.3398,11.7578 -58.1484,22.8399 -85.6211,32.9609 -95.3398,35.1211 -176.7187,59.5352 -242.3867,72.7422 44.2695,-50.2734 106.1094,-108.5429 184.1797,-173.5703 18.3789,-15.3047 37.8984,-31.1406 58.0195,-47.125 l 24.2227,-19.1953 v -649.1016 l -24.2227,-19.2265 c -20.1211,-15.9883 -39.6406,-31.8203 -58.0195,-47.1289 -78.0703,-65.0274 -139.9102,-123.293 -184.1797,-173.5703 65.668,13.2422 147.0469,37.6211 242.3867,72.7422 17.5196,6.4531 35.6719,13.332 53.9531,20.4648 l 28.629,11.1406 26.6015,-15.3711 145.6406,-84.0703 111.5899,-64.4414 -118.7735,-49.9961 c -70.5585,-29.6875 -138.207,-55.8906 -201.0664,-77.957 -127.8203,-44.8125 -235.0234,-71.9727 -318.6328,-80.707 -20.457,-2.1602 -39.8711,-3.2383 -57.6992,-3.2383 -27.9101,0 -52.7031,2.5273 -75.832,7.7148 -33.0664,7.4375 -62.0586,20.5547 -86.168,39.0078 -19.4101,14.8789 -35.3008,32.8711 -47.1992,53.4844 -11.9102,20.6484 -19.5625,43.3945 -22.7227,67.6523 -3.9414,30.0899 -0.8086,61.7579 9.3008,94.129 11.5313,36.914 32.0899,75.4609 62.8711,117.8671"
       id="path3206" />
    <path
       style="fill:#191919;fill-opacity:1;fill-rule:nonzero;stroke:none"
       d="m 9873.7197,2030.3167 -84.4258,-48.7344 v 727.5508 l 133.0391,76.8086 71.5859,41.3281 65.0941,37.5703 69.855,40.332 290.508,167.7227 v -727.5234 l -140.262,-80.9922 -147.238,-85.0313 -101.055,-58.3242 -147.2419,-85 -9.8594,-5.707"
       id="path3208" />
    <path
       style="fill:#191919;fill-opacity:1;fill-rule:nonzero;stroke:none"
       d="m 10388.86,3120.051 -306.296,-176.8164 -43.75,-25.2812 -92.774,-53.5586 -44.8242,-25.8711 -148.3086,-85.6289 c -4.9414,2.8711 -65.8789,38.0391 -148.2812,85.6289 -14.3438,8.2734 -29.3516,16.9336 -44.8243,25.8711 -29.6367,17.1094 -60.9882,35.2187 -92.7734,53.5586 -14.5508,8.4023 -29.1758,16.832 -43.75,25.2812 -148.8711,85.9375 -294.4102,169.9532 -306.2969,176.8164 3.0235,1.7422 48.2578,27.8711 113.3164,65.4454 42.8282,24.7187 94.2383,54.4062 147.875,85.371 22.1563,12.7813 44.668,25.7969 67.1094,38.7579 51.457,29.7109 102.5586,59.1914 147.8945,85.3711 89.1914,51.4843 156.1211,90.1367 159.7305,92.2382 l 159.7578,-92.2382 147.895,-85.3711 67.113,-38.7579 147.871,-85.371 113.316,-65.4454"
       id="path3210" />
    <path
       style="fill:#191919;fill-opacity:1;fill-rule:nonzero;stroke:none"
       d="m 9086.458,2345.3714 v 727.5234 c 9.5391,-5.4922 146.5898,-84.6367 290.5195,-167.7227 23.2461,-13.4453 46.7031,-26.9804 69.8281,-40.332 22.1524,-12.7773 44.004,-25.3984 65.125,-37.5703 25.1875,-14.5664 49.2813,-28.4649 71.5547,-41.3281 72.9532,-42.1211 126.2422,-72.8946 133.0391,-76.8086 v -727.5508 l -84.3945,48.7344 -9.8594,5.707 -147.2734,85 -101.0235,58.3242 -147.2578,85.0313 -140.2578,80.9922"
       id="path3212" />
    <path
       style="fill:#191919;fill-opacity:1;fill-rule:nonzero;stroke:none"
       d="m 11820.556,4769.4964 h -188.211 l 276.621,412.2812 h -1593.871 c 0,89.3203 -72.387,108.1289 -161.711,108.1289 h -800.9143 c -89.3203,0 -161.7266,-18.8086 -161.7266,-108.1289 H 7596.8799 L 7873.501,4769.4964 H 7685.29 l -382.3711,518.0195 c 0,231.8515 271.5235,306.539 503.3828,306.539 h 3893.2463 c 231.867,0 503.375,-74.6875 503.375,-306.539 l -382.367,-518.0195"
       id="path3214" />
  </g>
</svg>
